<svg width="546" height="500" viewBox="0 0 546 500" fill="none" xmlns="http://www.w3.org/2000/svg">
<path d="M208.747 166.92C207.064 163.177 204.338 159.999 200.894 157.766C197.451 155.534 193.437 154.342 189.333 154.333H170.027L184.213 119.56C185.481 116.367 185.958 112.915 185.605 109.498C185.253 106.081 184.08 102.8 182.187 99.9334C180.163 96.9637 177.442 94.5356 174.262 92.8619C171.082 91.1883 167.54 90.32 163.947 90.3334H117.653C113.278 90.2288 108.976 91.4726 105.332 93.8959C101.687 96.3192 98.8762 99.8048 97.28 103.88L62.8267 189.213C61.5929 192.4 61.1427 195.836 61.514 199.233C61.8852 202.63 63.0671 205.888 64.96 208.733C66.9835 211.703 69.7045 214.131 72.8845 215.805C76.0645 217.478 79.6065 218.347 83.2 218.333H112.64L93.3333 290.227C92.6901 292.573 92.8683 295.069 93.8384 297.3C94.8084 299.531 96.5121 301.363 98.6667 302.493C100.33 303.291 102.155 303.693 104 303.667C105.541 303.667 107.063 303.333 108.463 302.689C109.862 302.044 111.105 301.104 112.107 299.933L205.973 189.32C208.484 186.219 210.075 182.476 210.565 178.517C211.055 174.557 210.425 170.54 208.747 166.92Z" fill="#FF1100"/>
<path d="M490 273.56V336L298.88 308C299.496 306.359 300.474 304.877 301.742 303.665C303.009 302.454 304.533 301.543 306.2 301L451 245.68H451.36C454.79 244.54 458.385 243.972 462 244C465.588 243.995 469.143 244.699 472.458 246.072C475.774 247.445 478.785 249.46 481.32 252C484.124 254.838 486.336 258.206 487.826 261.908C489.317 265.609 490.055 269.57 490 273.56Z" fill="#231F20"/>
<path d="M498 308H382C381.6 308 381.2 308 380.8 308H298.88C298.709 308.445 298.563 308.899 298.44 309.36C298.152 310.21 298.003 311.102 298 312V448C298 454.365 300.529 460.47 305.029 464.971C309.53 469.471 315.635 472 322 472H498C504.365 472 510.47 469.471 514.971 464.971C519.471 460.47 522 454.365 522 448V332C522 325.635 519.471 319.53 514.971 315.029C510.47 310.529 504.365 308 498 308Z" fill="#414042"/>
<path d="M522 356V428H458C453.757 428 449.687 426.314 446.686 423.314C443.686 420.313 442 416.243 442 412V372C442 367.757 443.686 363.687 446.686 360.686C449.687 357.686 453.757 356 458 356H522Z" fill="#FFF200"/>
<path d="M474 404C480.627 404 486 398.627 486 392C486 385.373 480.627 380 474 380C467.373 380 462 385.373 462 392C462 398.627 467.373 404 474 404Z" fill="#231F20"/>
<path d="M180.104 475.856L299.12 69.56H331.952L212.936 475.856H180.104Z" fill="white"/>
</svg>
